<?xml version="1.0" encoding="UTF-8"?>
<!DOCTYPE svg PUBLIC "-//W3C//DTD SVG 1.1//EN" "http://www.w3.org/Graphics/SVG/1.1/DTD/svg11.dtd">
<svg xmlns="http://www.w3.org/2000/svg" version="1.1" width="900px" height="900px" style="shape-rendering:geometricPrecision; text-rendering:geometricPrecision; image-rendering:optimizeQuality; fill-rule:evenodd; clip-rule:evenodd" xmlns:xlink="http://www.w3.org/1999/xlink">
<g><path style="opacity:1" fill="#fefefe" d="M -0.5,-0.5 C 299.5,-0.5 599.5,-0.5 899.5,-0.5C 899.5,299.5 899.5,599.5 899.5,899.5C 599.5,899.5 299.5,899.5 -0.5,899.5C -0.5,599.5 -0.5,299.5 -0.5,-0.5 Z"/></g>
<g><path style="opacity:1" fill="#d73030" d="M 524.5,99.5 C 526.515,100.924 528.848,101.59 531.5,101.5C 532.167,101.5 532.833,101.5 533.5,101.5C 535.515,102.924 537.848,103.59 540.5,103.5C 595.593,117.877 644.593,143.543 687.5,180.5C 682.391,180.944 677.391,181.944 672.5,183.5C 661.513,184.166 650.513,184.499 639.5,184.5C 631.555,182.994 623.388,182.327 615,182.5C 609.5,182.667 604,182.833 598.5,183C 593.094,184.068 587.761,184.901 582.5,185.5C 571.828,185.333 561.161,185.5 550.5,186C 547.964,186.186 545.631,186.686 543.5,187.5C 481.108,188.808 418.775,188.808 356.5,187.5C 352.764,186.011 348.764,185.344 344.5,185.5C 337.159,185.666 329.826,185.5 322.5,185C 316.065,183.961 309.731,183.127 303.5,182.5C 278.337,181.668 253.003,181.168 227.5,181C 224.166,179.916 220.832,179.082 217.5,178.5C 276.517,127.856 345.184,99.3561 423.5,93C 457.453,91.1355 491.12,93.3022 524.5,99.5 Z"/></g>
<g><path style="opacity:1" fill="#eba19e" d="M 524.5,99.5 C 527.152,99.4095 529.485,100.076 531.5,101.5C 528.848,101.59 526.515,100.924 524.5,99.5 Z"/></g>
<g><path style="opacity:1" fill="#efadad" d="M 533.5,101.5 C 536.152,101.41 538.485,102.076 540.5,103.5C 537.848,103.59 535.515,102.924 533.5,101.5 Z"/></g>
<g><path style="opacity:1" fill="#060203" d="M 214.5,180.5 C 217.641,181.321 220.975,181.821 224.5,182C 250.831,182.5 277.165,182.667 303.5,182.5C 309.731,183.127 316.065,183.961 322.5,185C 329.826,185.5 337.159,185.666 344.5,185.5C 348.21,187.136 352.21,187.802 356.5,187.5C 418.775,188.808 481.108,188.808 543.5,187.5C 556.662,187.003 569.662,186.336 582.5,185.5C 594.034,185.467 605.534,184.8 617,183.5C 624.484,184.228 631.984,184.562 639.5,184.5C 643.319,185.166 647.319,185.499 651.5,185.5C 658.719,185.582 665.719,184.915 672.5,183.5C 677.391,181.944 682.391,180.944 687.5,180.5C 705.17,180.667 722.836,180.5 740.5,180C 745.332,179.251 749.999,177.917 754.5,176C 766.833,175.333 779.167,175.333 791.5,176C 794.295,176.297 795.961,177.797 796.5,180.5C 795.85,183.655 794.183,186.155 791.5,188C 776.776,191.028 762.11,193.528 747.5,195.5C 738.653,195.759 729.986,196.426 721.5,197.5C 716.833,197.5 712.167,197.5 707.5,197.5C 685.274,196.964 663.274,197.964 641.5,200.5C 640.833,200.5 640.167,200.5 639.5,200.5C 633.949,200.527 628.616,201.194 623.5,202.5C 609.974,202.387 596.64,203.054 583.5,204.5C 532.826,204.723 482.16,205.389 431.5,206.5C 412.428,206.494 393.428,206.161 374.5,205.5C 356.194,203.677 337.527,202.843 318.5,203C 298.662,202.171 278.996,202.338 259.5,203.5C 244.599,202 229.599,201 214.5,200.5C 211.783,198.641 208.783,197.641 205.5,197.5C 201.855,198.116 198.188,198.45 194.5,198.5C 177.578,198.582 160.911,197.082 144.5,194C 134.833,193.667 125.167,193.333 115.5,193C 104.098,192.15 99.0981,186.15 100.5,175C 118.402,174.329 136.069,175.995 153.5,180C 173.831,180.5 194.164,180.667 214.5,180.5 Z"/></g>
<g><path style="opacity:1" fill="#993032" d="M 217.5,178.5 C 220.832,179.082 224.166,179.916 227.5,181C 253.003,181.168 278.337,181.668 303.5,182.5C 277.165,182.667 250.831,182.5 224.5,182C 220.975,181.821 217.641,181.321 214.5,180.5C 215.29,179.599 216.29,178.932 217.5,178.5 Z"/></g>
<g><path style="opacity:1" fill="#a32d2c" d="M 639.5,184.5 C 631.984,184.562 624.484,184.228 617,183.5C 605.534,184.8 594.034,185.467 582.5,185.5C 587.761,184.901 593.094,184.068 598.5,183C 604,182.833 609.5,182.667 615,182.5C 623.388,182.327 631.555,182.994 639.5,184.5 Z"/></g>
<g><path style="opacity:1" fill="#731818" d="M 672.5,183.5 C 665.719,184.915 658.719,185.582 651.5,185.5C 647.319,185.499 643.319,185.166 639.5,184.5C 650.513,184.499 661.513,184.166 672.5,183.5 Z"/></g>
<g><path style="opacity:1" fill="#3d0e10" d="M 344.5,185.5 C 348.764,185.344 352.764,186.011 356.5,187.5C 352.21,187.802 348.21,187.136 344.5,185.5 Z"/></g>
<g><path style="opacity:1" fill="#832325" d="M 582.5,185.5 C 569.662,186.336 556.662,187.003 543.5,187.5C 545.631,186.686 547.964,186.186 550.5,186C 561.161,185.5 571.828,185.333 582.5,185.5 Z"/></g>
<g><path style="opacity:1" fill="#b3b3b3" d="M 747.5,195.5 C 745.708,196.309 743.708,196.809 741.5,197C 734.842,197.5 728.175,197.666 721.5,197.5C 729.986,196.426 738.653,195.759 747.5,195.5 Z"/></g>
<g><path style="opacity:1" fill="#92272a" d="M 707.5,197.5 C 707.5,198.167 707.5,198.833 707.5,199.5C 701.411,198.853 695.244,198.52 689,198.5C 673.169,199.257 657.335,199.924 641.5,200.5C 663.274,197.964 685.274,196.964 707.5,197.5 Z"/></g>
<g><path style="opacity:1" fill="#010000" d="M 178.5,215.5 C 193.327,216.53 208.327,217.197 223.5,217.5C 229.942,218.944 236.608,219.61 243.5,219.5C 247.681,219.499 251.681,219.166 255.5,218.5C 264.54,218.252 273.54,218.585 282.5,219.5C 326.58,220.303 370.913,220.636 415.5,220.5C 474.336,220.294 533.003,219.627 591.5,218.5C 606.159,217.277 620.825,217.277 635.5,218.5C 645.022,218.323 654.355,217.656 663.5,216.5C 682.995,215.661 702.328,214.661 721.5,213.5C 735.839,212.981 750.172,212.315 764.5,211.5C 767.247,211.463 769.414,212.463 771,214.5C 777.226,226.238 780.06,238.738 779.5,252C 779.515,259.54 779.015,267.04 778,274.5C 777.218,279.364 775.385,283.698 772.5,287.5C 766.916,291.016 760.916,292.349 754.5,291.5C 754.389,290.883 754.056,290.383 753.5,290C 743.556,289.749 733.889,290.916 724.5,293.5C 722.167,293.5 719.833,293.5 717.5,293.5C 702.818,293.167 688.152,293.501 673.5,294.5C 673.291,295.086 672.957,295.586 672.5,296C 652.169,296.5 631.836,296.667 611.5,296.5C 601.037,297.121 590.704,297.788 580.5,298.5C 560.337,299.175 540.171,299.842 520,300.5C 461.172,299.547 402.339,299.213 343.5,299.5C 340.833,299.5 338.167,299.5 335.5,299.5C 330.402,298.043 325.069,297.376 319.5,297.5C 301.476,296.177 283.476,296.343 265.5,298C 263.082,300.106 260.248,301.273 257,301.5C 252.072,299.913 247.238,298.247 242.5,296.5C 225.519,295.88 208.519,295.88 191.5,296.5C 178.181,297.277 164.848,297.611 151.5,297.5C 150.158,296.207 148.491,295.374 146.5,295C 140.182,293.67 133.849,292.503 127.5,291.5C 125.014,288.241 123.181,284.574 122,280.5C 120.668,270.187 119.502,259.853 118.5,249.5C 120.955,238.999 122.455,228.333 123,217.5C 129.157,211.169 136.657,208.502 145.5,209.5C 154.359,209.3 162.693,211.134 170.5,215C 173.146,215.497 175.813,215.664 178.5,215.5 Z"/></g>
<g><path style="opacity:1" fill="#d22f30" d="M 259.5,203.5 C 297.909,203.558 336.242,204.224 374.5,205.5C 393.428,206.161 412.428,206.494 431.5,206.5C 482.16,205.389 532.826,204.723 583.5,204.5C 597.021,204.491 610.354,203.824 623.5,202.5C 629.084,202.745 634.417,202.078 639.5,200.5C 640.167,200.5 640.833,200.5 641.5,200.5C 657.335,199.924 673.169,199.257 689,198.5C 695.244,198.52 701.411,198.853 707.5,199.5C 712.425,203.758 717.092,208.425 721.5,213.5C 702.328,214.661 682.995,215.661 663.5,216.5C 641.164,216.333 618.831,216.5 596.5,217C 594.618,217.198 592.952,217.698 591.5,218.5C 533.003,219.627 474.336,220.294 415.5,220.5C 410.36,219.512 405.026,219.179 399.5,219.5C 370.329,218.767 340.996,218.1 311.5,217.5C 308.645,217.503 305.978,217.836 303.5,218.5C 287.331,217.766 271.331,217.766 255.5,218.5C 244.817,218.572 234.15,218.238 223.5,217.5C 208.327,217.197 193.327,216.53 178.5,215.5C 183.805,209.86 189.139,204.193 194.5,198.5C 198.188,198.45 201.855,198.116 205.5,197.5C 208.783,197.641 211.783,198.641 214.5,200.5C 229.599,201 244.599,202 259.5,203.5 Z"/></g>
<g><path style="opacity:1" fill="#862021" d="M 623.5,202.5 C 610.354,203.824 597.021,204.491 583.5,204.5C 596.64,203.054 609.974,202.387 623.5,202.5 Z"/></g>
<g><path style="opacity:1" fill="#862323" d="M 259.5,203.5 C 278.996,202.338 298.662,202.171 318.5,203C 337.527,202.843 356.194,203.677 374.5,205.5C 336.242,204.224 297.909,203.558 259.5,203.5 Z"/></g>
<g><path style="opacity:1" fill="#862223" d="M 639.5,200.5 C 634.417,202.078 629.084,202.745 623.5,202.5C 628.616,201.194 633.949,200.527 639.5,200.5 Z"/></g>
<g><path style="opacity:1" fill="#922426" d="M 663.5,216.5 C 654.355,217.656 645.022,218.323 635.5,218.5C 620.825,217.277 606.159,217.277 591.5,218.5C 592.952,217.698 594.618,217.198 596.5,217C 618.831,216.5 641.164,216.333 663.5,216.5 Z"/></g>
<g><path style="opacity:1" fill="#8f2828" d="M 255.5,218.5 C 271.331,217.766 287.331,217.766 303.5,218.5C 296.687,219.491 289.687,219.825 282.5,219.5C 273.54,218.585 264.54,218.252 255.5,218.5 Z"/></g>
<g><path style="opacity:1" fill="#711415" d="M 223.5,217.5 C 234.15,218.238 244.817,218.572 255.5,218.5C 251.681,219.166 247.681,219.499 243.5,219.5C 236.608,219.61 229.942,218.944 223.5,217.5 Z"/></g>
<g><path style="opacity:1" fill="#831b19" d="M 303.5,218.5 C 305.978,217.836 308.645,217.503 311.5,217.5C 340.996,218.1 370.329,218.767 399.5,219.5C 367.489,219.738 335.489,219.405 303.5,218.5 Z"/></g>
<g><path style="opacity:1" fill="#180000" d="M 303.5,218.5 C 335.489,219.405 367.489,219.738 399.5,219.5C 405.026,219.179 410.36,219.512 415.5,220.5C 370.913,220.636 326.58,220.303 282.5,219.5C 289.687,219.825 296.687,219.491 303.5,218.5 Z"/></g>
<g><path style="opacity:1" fill="#9a2929" d="M 754.5,291.5 C 752.512,291.173 750.512,290.84 748.5,290.5C 740.562,292.063 732.562,293.063 724.5,293.5C 733.889,290.916 743.556,289.749 753.5,290C 754.056,290.383 754.389,290.883 754.5,291.5 Z"/></g>
<g><path style="opacity:1" fill="#d73030" d="M 772.5,287.5 C 786.382,312.618 796.382,339.285 802.5,367.5C 802.41,370.152 803.076,372.485 804.5,374.5C 814.855,420.829 816.188,467.496 808.5,514.5C 807.232,516.905 806.565,519.572 806.5,522.5C 805.471,529.558 804.137,536.558 802.5,543.5C 800.723,546.505 799.723,549.838 799.5,553.5C 762.473,672.03 685.806,753.196 569.5,797C 555.605,801.581 541.605,805.415 527.5,808.5C 519.984,809.554 512.651,810.888 505.5,812.5C 466.126,817.987 426.793,817.654 387.5,811.5C 385.562,809.837 383.228,809.171 380.5,809.5C 274.496,786.979 193.662,729.312 138,636.5C 102.179,572.966 86.0126,504.633 89.5,431.5C 92.0705,423.16 93.0705,414.493 92.5,405.5C 92.5,404.833 92.5,404.167 92.5,403.5C 93.4824,399.684 94.1491,395.684 94.5,391.5C 100.312,356.399 111.312,323.065 127.5,291.5C 133.849,292.503 140.182,293.67 146.5,295C 148.491,295.374 150.158,296.207 151.5,297.5C 163.326,298.66 175.326,298.826 187.5,298C 189.058,297.79 190.391,297.29 191.5,296.5C 208.514,297.273 225.514,297.273 242.5,296.5C 247.238,298.247 252.072,299.913 257,301.5C 260.248,301.273 263.082,300.106 265.5,298C 283.476,296.343 301.476,296.177 319.5,297.5C 324.616,298.806 329.949,299.473 335.5,299.5C 338.167,299.5 340.833,299.5 343.5,299.5C 356.654,300.605 369.987,301.272 383.5,301.5C 426.165,300.3 468.832,300.3 511.5,301.5C 543.681,301.161 575.681,300.161 607.5,298.5C 608.959,298.567 610.292,298.234 611.5,297.5C 632.169,297.667 652.836,297.5 673.5,297C 673.957,296.586 674.291,296.086 674.5,295.5C 688.994,294.833 703.328,294.167 717.5,293.5C 719.833,293.5 722.167,293.5 724.5,293.5C 732.562,293.063 740.562,292.063 748.5,290.5C 750.512,290.84 752.512,291.173 754.5,291.5C 760.916,292.349 766.916,291.016 772.5,287.5 Z"/></g>
<g><path style="opacity:1" fill="#8c2323" d="M 191.5,296.5 C 208.519,295.88 225.519,295.88 242.5,296.5C 225.514,297.273 208.514,297.273 191.5,296.5 Z"/></g>
<g><path style="opacity:1" fill="#872728" d="M 717.5,293.5 C 703.328,294.167 688.994,294.833 674.5,295.5C 674.291,296.086 673.957,296.586 673.5,297C 652.836,297.5 632.169,297.667 611.5,297.5C 611.5,297.167 611.5,296.833 611.5,296.5C 631.836,296.667 652.169,296.5 672.5,296C 672.957,295.586 673.291,295.086 673.5,294.5C 688.152,293.501 702.818,293.167 717.5,293.5 Z"/></g>
<g><path style="opacity:1" fill="#8d2424" d="M 191.5,296.5 C 190.391,297.29 189.058,297.79 187.5,298C 175.326,298.826 163.326,298.66 151.5,297.5C 164.848,297.611 178.181,297.277 191.5,296.5 Z"/></g>
<g><path style="opacity:1" fill="#510608" d="M 611.5,296.5 C 611.5,296.833 611.5,297.167 611.5,297.5C 610.292,298.234 608.959,298.567 607.5,298.5C 598.5,298.5 589.5,298.5 580.5,298.5C 590.704,297.788 601.037,297.121 611.5,296.5 Z"/></g>
<g><path style="opacity:1" fill="#430d0e" d="M 319.5,297.5 C 325.069,297.376 330.402,298.043 335.5,299.5C 329.949,299.473 324.616,298.806 319.5,297.5 Z"/></g>
<g><path style="opacity:1" fill="#892324" d="M 580.5,298.5 C 589.5,298.5 598.5,298.5 607.5,298.5C 575.681,300.161 543.681,301.161 511.5,301.5C 468.832,300.3 426.165,300.3 383.5,301.5C 369.987,301.272 356.654,300.605 343.5,299.5C 402.339,299.213 461.172,299.547 520,300.5C 540.171,299.842 560.337,299.175 580.5,298.5 Z"/></g>
<g><path style="opacity:1" fill="#852529" d="M 215.5,321.5 C 218.293,320.254 220.96,320.587 223.5,322.5C 220.833,322.167 218.167,321.833 215.5,321.5 Z"/></g>
<g><path style="opacity:1" fill="#bd2f31" d="M 239.5,335.5 C 240.693,332.948 242.027,330.448 243.5,328C 243.167,327.667 242.833,327.333 242.5,327C 236.001,325.671 229.668,324.171 223.5,322.5C 226.518,322.665 229.518,322.498 232.5,322C 230.715,320.837 228.715,320.17 226.5,320C 230.888,319.423 235.221,319.756 239.5,321C 237.941,321.98 236.274,322.813 234.5,323.5C 237.837,324.089 241.004,325.089 244,326.5C 244.552,329.419 243.885,332.086 242,334.5C 241.329,335.252 240.496,335.586 239.5,335.5 Z"/></g>
<g><path style="opacity:1" fill="#030000" d="M 215.5,321.5 C 218.167,321.833 220.833,322.167 223.5,322.5C 229.668,324.171 236.001,325.671 242.5,327C 242.833,327.333 243.167,327.667 243.5,328C 242.027,330.448 240.693,332.948 239.5,335.5C 238.096,337.255 237.096,339.255 236.5,341.5C 235.094,341.973 234.427,342.973 234.5,344.5C 233.596,345.209 233.263,346.209 233.5,347.5C 254.5,347.5 275.5,347.5 296.5,347.5C 296.5,354.833 296.5,362.167 296.5,369.5C 290.418,379.329 284.085,388.996 277.5,398.5C 276.957,398.56 276.624,398.893 276.5,399.5C 287.814,400.499 299.147,400.832 310.5,400.5C 310.5,432.5 310.5,464.5 310.5,496.5C 299.986,496.172 289.653,496.506 279.5,497.5C 279.333,521.502 279.5,545.502 280,569.5C 280.708,570.381 281.542,571.047 282.5,571.5C 282.918,572.222 283.584,572.722 284.5,573C 323.833,573.667 363.167,573.667 402.5,573C 404.066,572.392 405.4,571.558 406.5,570.5C 408.504,569.327 410.004,567.66 411,565.5C 413.022,559.518 413.855,553.518 413.5,547.5C 409.441,549.929 405.441,552.262 401.5,554.5C 387.566,556.804 373.566,557.137 359.5,555.5C 359.706,552.505 359.04,549.838 357.5,547.5C 357.768,545.901 357.434,544.568 356.5,543.5C 356.124,539.034 355.124,534.701 353.5,530.5C 362.801,530.231 372.135,530.064 381.5,530C 383.653,529.901 385.319,529.067 386.5,527.5C 388.371,527.141 389.871,526.141 391,524.5C 391.26,522.382 392.26,520.716 394,519.5C 395.903,508.25 396.736,496.917 396.5,485.5C 397.496,471.343 397.829,457.01 397.5,442.5C 398.496,428.677 398.829,414.677 398.5,400.5C 389.167,400.5 379.833,400.5 370.5,400.5C 370.5,403.5 370.5,406.5 370.5,409.5C 369.743,421.38 368.743,433.38 367.5,445.5C 367.5,446.167 367.5,446.833 367.5,447.5C 365.656,452.551 364.656,457.884 364.5,463.5C 360.765,479.736 355.765,495.736 349.5,511.5C 346.41,518.679 343.076,525.679 339.5,532.5C 332.055,545.288 322.722,556.622 311.5,566.5C 305.823,560.824 299.823,555.491 293.5,550.5C 291.887,549.162 291.387,547.495 292,545.5C 306.638,531.203 317.471,514.536 324.5,495.5C 325.117,495.389 325.617,495.056 326,494.5C 333.509,474.103 338.009,453.103 339.5,431.5C 341.078,426.417 341.745,421.084 341.5,415.5C 342.487,410.695 342.821,405.695 342.5,400.5C 333.167,400.5 323.833,400.5 314.5,400.5C 314.5,400.167 314.5,399.833 314.5,399.5C 314.5,390.5 314.5,381.5 314.5,372.5C 323.833,372.5 333.167,372.5 342.5,372.5C 342.5,357.5 342.5,342.5 342.5,327.5C 351.833,327.5 361.167,327.5 370.5,327.5C 370.5,342.5 370.5,357.5 370.5,372.5C 389.5,372.5 408.5,372.5 427.5,372.5C 427.981,418.859 427.148,465.192 425,511.5C 424.493,518.881 423.66,526.214 422.5,533.5C 420.395,536.408 419.395,539.742 419.5,543.5C 421.5,543.5 423.5,543.5 425.5,543.5C 430.627,546.656 436.294,548.656 442.5,549.5C 442.5,551.833 442.5,554.167 442.5,556.5C 441.399,562.018 440.399,567.685 439.5,573.5C 439.5,574.167 439.5,574.833 439.5,575.5C 437.837,580.514 435.837,585.514 433.5,590.5C 431.74,593.52 429.406,595.853 426.5,597.5C 422.687,598.16 419.021,599.326 415.5,601C 366.833,601.667 318.167,601.667 269.5,601C 262.837,598.5 257.504,594.333 253.5,588.5C 253.029,586.421 252.363,584.421 251.5,582.5C 250.701,554.856 250.201,527.19 250,499.5C 248.269,501.862 247.435,504.529 247.5,507.5C 245.437,516.354 242.771,525.021 239.5,533.5C 226.36,563.087 206.193,586.753 179,604.5C 172.644,596.978 166.477,589.311 160.5,581.5C 170.865,573.209 181.032,564.543 191,555.5C 196.576,548.68 201.909,541.68 207,534.5C 210.969,528.229 214.135,521.562 216.5,514.5C 218.434,510.112 219.767,505.445 220.5,500.5C 221.434,499.432 221.768,498.099 221.5,496.5C 207.5,496.5 193.5,496.5 179.5,496.5C 177.673,467.184 176.839,437.517 177,407.5C 176.617,406.944 176.117,406.611 175.5,406.5C 170.391,399.55 165.058,392.717 159.5,386C 182.63,368.371 201.296,346.871 215.5,321.5 Z"/></g>
<g><path style="opacity:1" fill="#030001" d="M 627.5,385.5 C 625.952,385.821 625.285,386.821 625.5,388.5C 633.125,387.474 640.792,386.807 648.5,386.5C 654.182,386.468 659.848,386.135 665.5,385.5C 667.952,385.461 669.952,384.794 671.5,383.5C 678.861,383.115 686.194,382.448 693.5,381.5C 689.627,373.434 684.96,365.767 679.5,358.5C 679.919,357.328 680.585,356.328 681.5,355.5C 689.04,351.649 696.707,347.982 704.5,344.5C 720.525,365.218 734.525,387.218 746.5,410.5C 740.466,413.849 734.466,417.182 728.5,420.5C 725.297,421.683 722.13,423.016 719,424.5C 715.922,419.08 712.755,413.747 709.5,408.5C 708.726,407.853 707.726,407.52 706.5,407.5C 700.009,408.425 693.676,409.425 687.5,410.5C 676.636,410.932 665.969,411.932 655.5,413.5C 647.307,413.616 639.307,414.283 631.5,415.5C 628.833,415.5 626.167,415.5 623.5,415.5C 616.309,415.681 609.309,416.348 602.5,417.5C 595.825,417.666 589.158,417.5 582.5,417C 581.883,414.723 581.216,412.556 580.5,410.5C 579.592,403.479 578.592,396.479 577.5,389.5C 579.099,389.768 580.432,389.434 581.5,388.5C 588.324,385.187 594.157,380.521 599,374.5C 611.808,357.54 623.975,340.207 635.5,322.5C 646.265,326.31 656.932,330.31 667.5,334.5C 654.906,352.093 641.572,369.093 627.5,385.5 Z"/></g>
<g><path style="opacity:1" fill="#b73235" d="M 567.5,333.5 C 536.329,333.169 505.329,333.502 474.5,334.5C 473.833,334.5 473.5,334.833 473.5,335.5C 472.226,334.811 472.226,333.977 473.5,333C 505.003,332.169 536.336,332.336 567.5,333.5 Z"/></g>
<g><path style="opacity:1" fill="#030000" d="M 567.5,333.5 C 567.5,366.167 567.5,398.833 567.5,431.5C 547.993,431.17 528.659,431.503 509.5,432.5C 507.855,437.234 507.189,442.234 507.5,447.5C 506.028,451.919 505.362,456.586 505.5,461.5C 505.5,462.167 505.5,462.833 505.5,463.5C 504.527,465.948 504.194,468.615 504.5,471.5C 525.833,471.5 547.167,471.5 568.5,471.5C 568.5,484.833 568.5,498.167 568.5,511.5C 567.695,532.754 566.029,554.087 563.5,575.5C 561.967,582.928 558.3,589.094 552.5,594C 545.81,598.054 538.81,601.221 531.5,603.5C 518.518,604.327 505.518,604.661 492.5,604.5C 491.167,604.5 489.833,604.5 488.5,604.5C 487.92,599.823 486.587,595.49 484.5,591.5C 484.397,585.755 483.064,580.422 480.5,575.5C 491.328,575.09 502.328,574.923 513.5,575C 517.89,574.741 521.89,573.574 525.5,571.5C 528.865,570.135 531.199,567.801 532.5,564.5C 535.281,555.171 536.614,545.504 536.5,535.5C 536.5,534.5 536.5,533.5 536.5,532.5C 537.495,521.679 537.828,510.679 537.5,499.5C 515.5,499.5 493.5,499.5 471.5,499.5C 472.17,487.473 473.17,475.473 474.5,463.5C 476.681,448.698 478.348,433.698 479.5,418.5C 479.5,417.5 479.5,416.5 479.5,415.5C 480.563,411.361 481.23,407.028 481.5,402.5C 500.167,402.5 518.833,402.5 537.5,402.5C 537.5,389.5 537.5,376.5 537.5,363.5C 516.5,363.5 495.5,363.5 474.5,363.5C 474.5,353.833 474.5,344.167 474.5,334.5C 505.329,333.502 536.329,333.169 567.5,333.5 Z"/></g>
<g><path style="opacity:1" fill="#822929" d="M 342.5,327.5 C 342.5,342.5 342.5,357.5 342.5,372.5C 333.167,372.5 323.833,372.5 314.5,372.5C 314.5,381.5 314.5,390.5 314.5,399.5C 313.507,390.682 313.173,381.682 313.5,372.5C 322.652,371.506 331.985,371.173 341.5,371.5C 341.171,356.657 341.504,341.99 342.5,327.5 Z"/></g>
<g><path style="opacity:1" fill="#b43b39" d="M 236.5,341.5 C 236.461,342.583 236.127,343.583 235.5,344.5C 255.663,345.167 275.663,345.833 295.5,346.5C 274.806,347.155 254.473,346.488 234.5,344.5C 234.427,342.973 235.094,341.973 236.5,341.5 Z"/></g>
<g><path style="opacity:1" fill="#52080d" d="M 234.5,344.5 C 254.473,346.488 274.806,347.155 295.5,346.5C 296.823,349.938 297.49,353.771 297.5,358C 297.499,362.015 297.165,365.849 296.5,369.5C 296.5,362.167 296.5,354.833 296.5,347.5C 275.5,347.5 254.5,347.5 233.5,347.5C 233.263,346.209 233.596,345.209 234.5,344.5 Z"/></g>
<g><path style="opacity:1" fill="#8a2526" d="M 474.5,334.5 C 474.5,344.167 474.5,353.833 474.5,363.5C 495.5,363.5 516.5,363.5 537.5,363.5C 537.5,376.5 537.5,389.5 537.5,402.5C 518.833,402.5 500.167,402.5 481.5,402.5C 499.833,401.833 518.167,401.167 536.5,400.5C 536.5,388.5 536.5,376.5 536.5,364.5C 515.5,364.5 494.5,364.5 473.5,364.5C 473.5,354.833 473.5,345.167 473.5,335.5C 473.5,334.833 473.833,334.5 474.5,334.5 Z"/></g>
<g><path style="opacity:1" fill="#6f1e1e" d="M 370.5,327.5 C 371.496,341.99 371.829,356.657 371.5,371.5C 390.167,371.5 408.833,371.5 427.5,371.5C 427.5,371.833 427.5,372.167 427.5,372.5C 408.5,372.5 389.5,372.5 370.5,372.5C 370.5,357.5 370.5,342.5 370.5,327.5 Z"/></g>
<g><path style="opacity:1" fill="#681b18" d="M 262.5,375.5 C 255.03,374.169 247.196,373.502 239,373.5C 231.167,373.667 223.333,373.833 215.5,374C 214.295,375.376 212.962,376.542 211.5,377.5C 211.859,375.629 212.859,374.129 214.5,373C 230.83,372.5 247.163,372.333 263.5,372.5C 263.737,373.791 263.404,374.791 262.5,375.5 Z"/></g>
<g><path style="opacity:1" fill="#d97878" d="M 802.5,367.5 C 803.924,369.515 804.59,371.848 804.5,374.5C 803.076,372.485 802.41,370.152 802.5,367.5 Z"/></g>
<g><path style="opacity:1" fill="#d62f30" d="M 262.5,375.5 C 256.906,384.093 250.572,392.093 243.5,399.5C 225.992,399.83 208.659,399.497 191.5,398.5C 198.229,391.44 204.896,384.44 211.5,377.5C 212.962,376.542 214.295,375.376 215.5,374C 223.333,373.833 231.167,373.667 239,373.5C 247.196,373.502 255.03,374.169 262.5,375.5 Z"/></g>
<g><path style="opacity:1" fill="#b72e30" d="M 658.5,384.5 C 655.167,385.167 651.833,385.833 648.5,386.5C 640.792,386.807 633.125,387.474 625.5,388.5C 625.285,386.821 625.952,385.821 627.5,385.5C 629.628,386.629 631.961,386.796 634.5,386C 636.567,381.281 639.567,380.115 643.5,382.5C 642.271,383.281 640.938,383.781 639.5,384C 645.825,384.5 652.158,384.666 658.5,384.5 Z"/></g>
<g><path style="opacity:1" fill="#320f0c" d="M 671.5,383.5 C 669.952,384.794 667.952,385.461 665.5,385.5C 659.848,386.135 654.182,386.468 648.5,386.5C 651.833,385.833 655.167,385.167 658.5,384.5C 662.798,383.8 667.131,383.467 671.5,383.5 Z"/></g>
<g><path style="opacity:1" fill="#9f2d2b" d="M 581.5,388.5 C 580.432,389.434 579.099,389.768 577.5,389.5C 578.592,396.479 579.592,403.479 580.5,410.5C 577.299,403.661 575.965,396.494 576.5,389C 578.134,388.506 579.801,388.34 581.5,388.5 Z"/></g>
<g><path style="opacity:1" fill="#f6c5c5" d="M 94.5,391.5 C 94.1491,395.684 93.4824,399.684 92.5,403.5C 91.9106,399.029 92.5772,395.029 94.5,391.5 Z"/></g>
<g><path style="opacity:1" fill="#6d292a" d="M 191.5,398.5 C 208.659,399.497 225.992,399.83 243.5,399.5C 225.671,400.662 207.671,400.829 189.5,400C 190.044,399.283 190.711,398.783 191.5,398.5 Z"/></g>
<g><path style="opacity:1" fill="#b83536" d="M 536.5,400.5 C 518.167,401.167 499.833,401.833 481.5,402.5C 481.23,407.028 480.563,411.361 479.5,415.5C 479.613,410.482 479.947,405.482 480.5,400.5C 499.167,400.5 517.833,400.5 536.5,400.5 Z"/></g>
<g><path style="opacity:1" fill="#6b1d1d" d="M 314.5,400.5 C 323.833,400.5 333.167,400.5 342.5,400.5C 342.821,405.695 342.487,410.695 341.5,415.5C 341.5,410.833 341.5,406.167 341.5,401.5C 332.318,401.827 323.318,401.493 314.5,400.5 Z"/></g>
<g><path style="opacity:1" fill="#9c2b29" d="M 709.5,408.5 C 702.298,410.243 694.965,410.909 687.5,410.5C 693.676,409.425 700.009,408.425 706.5,407.5C 707.726,407.52 708.726,407.853 709.5,408.5 Z"/></g>
<g><path style="opacity:1" fill="#9f2b2f" d="M 687.5,410.5 C 685.257,411.812 682.59,412.478 679.5,412.5C 671.512,413.166 663.512,413.499 655.5,413.5C 665.969,411.932 676.636,410.932 687.5,410.5 Z"/></g>
<g><path style="opacity:1" fill="#812b2c" d="M 655.5,413.5 C 647.729,415.155 639.729,415.822 631.5,415.5C 639.307,414.283 647.307,413.616 655.5,413.5 Z"/></g>
<g><path style="opacity:1" fill="#551416" d="M 277.5,398.5 C 288.654,399.495 299.988,399.828 311.5,399.5C 311.5,432.167 311.5,464.833 311.5,497.5C 300.833,497.5 290.167,497.5 279.5,497.5C 289.653,496.506 299.986,496.172 310.5,496.5C 310.5,464.5 310.5,432.5 310.5,400.5C 299.147,400.832 287.814,400.499 276.5,399.5C 276.624,398.893 276.957,398.56 277.5,398.5 Z"/></g>
<g><path style="opacity:1" fill="#d72f30" d="M 339.5,431.5 C 338.009,453.103 333.509,474.103 326,494.5C 325.617,495.056 325.117,495.389 324.5,495.5C 323.141,494.993 322.141,493.993 321.5,492.5C 318.36,495.301 316.027,498.634 314.5,502.5C 313.702,500.922 313.202,499.256 313,497.5C 312.333,466.167 312.333,434.833 313,403.5C 313.333,403.167 313.667,402.833 314,402.5C 315.167,526.498 316,526.498 316.5,402.5C 324.5,402.5 332.5,402.5 340.5,402.5C 340.482,412.18 340.148,421.847 339.5,431.5 Z"/></g>
<g><path style="opacity:1" fill="#631617" d="M 623.5,415.5 C 616.73,417.075 609.73,417.741 602.5,417.5C 609.309,416.348 616.309,415.681 623.5,415.5 Z"/></g>
<g><path style="opacity:1" fill="#d04d4a" d="M 92.5,405.5 C 93.0705,414.493 92.0705,423.16 89.5,431.5C 90.5981,422.713 91.5981,414.046 92.5,405.5 Z"/></g>
<g><path style="opacity:1" fill="#5b1518" d="M 641.5,420.5 C 641.5,420.167 641.5,419.833 641.5,419.5C 652.167,419.5 662.833,419.5 673.5,419.5C 673.5,426.833 673.5,434.167 673.5,441.5C 692.5,441.5 711.5,441.5 730.5,441.5C 730.5,441.833 730.5,442.167 730.5,442.5C 711.167,442.5 691.833,442.5 672.5,442.5C 672.5,435.167 672.5,427.833 672.5,420.5C 662.167,420.5 651.833,420.5 641.5,420.5 Z"/></g>
<g><path style="opacity:1" fill="#ad2c2e" d="M 479.5,418.5 C 478.348,433.698 476.681,448.698 474.5,463.5C 475.723,448.876 476.556,434.209 477,419.5C 477.671,418.748 478.504,418.414 479.5,418.5 Z"/></g>
<g><path style="opacity:1" fill="#5e1617" d="M 397.5,442.5 C 397.5,428.833 397.5,415.167 397.5,401.5C 388.833,401.5 380.167,401.5 371.5,401.5C 371.806,404.385 371.473,407.052 370.5,409.5C 370.5,406.5 370.5,403.5 370.5,400.5C 379.833,400.5 389.167,400.5 398.5,400.5C 398.829,414.677 398.496,428.677 397.5,442.5 Z"/></g>
<g><path style="opacity:1" fill="#030000" d="M 641.5,420.5 C 651.833,420.5 662.167,420.5 672.5,420.5C 672.5,427.833 672.5,435.167 672.5,442.5C 691.833,442.5 711.167,442.5 730.5,442.5C 730.5,469.5 730.5,496.5 730.5,523.5C 711.167,523.5 691.833,523.5 672.5,523.5C 672.5,536.167 672.5,548.833 672.5,561.5C 674.415,561.784 676.081,561.451 677.5,560.5C 686.22,559.486 694.887,558.153 703.5,556.5C 703.013,550.709 701.346,545.376 698.5,540.5C 699.827,538.818 701.494,537.485 703.5,536.5C 709.815,534.296 716.315,532.629 723,531.5C 723.772,531.645 724.439,531.978 725,532.5C 734.127,551.728 741.961,571.395 748.5,591.5C 748.67,592.822 748.337,593.989 747.5,595C 744.626,595.942 741.96,597.109 739.5,598.5C 733.113,600.63 726.78,602.963 720.5,605.5C 717.965,597.894 715.631,590.227 713.5,582.5C 709.256,581.749 705.256,582.416 701.5,584.5C 688.922,586.272 676.588,588.605 664.5,591.5C 647.715,592.848 631.048,594.848 614.5,597.5C 608.596,597.321 602.929,597.988 597.5,599.5C 596.167,599.5 594.833,599.5 593.5,599.5C 588.493,599.751 583.493,600.084 578.5,600.5C 578.083,596.165 577.583,591.832 577,587.5C 576.722,586.584 576.222,585.918 575.5,585.5C 575.431,580.146 575.098,574.813 574.5,569.5C 582.851,569.518 591.184,569.185 599.5,568.5C 607.701,568.483 615.701,567.817 623.5,566.5C 629.516,566.407 635.516,566.074 641.5,565.5C 641.5,551.5 641.5,537.5 641.5,523.5C 621.5,523.5 601.5,523.5 581.5,523.5C 581.5,496.167 581.5,468.833 581.5,441.5C 601.5,441.5 621.5,441.5 641.5,441.5C 641.5,434.5 641.5,427.5 641.5,420.5 Z"/></g>
<g><path style="opacity:1" fill="#af2c2e" d="M 397.5,442.5 C 397.829,457.01 397.496,471.343 396.5,485.5C 396.5,457.833 396.5,430.167 396.5,402.5C 388.5,402.5 380.5,402.5 372.5,402.5C 371.244,416.456 370.244,430.456 369.5,444.5C 368.817,444.863 368.15,445.196 367.5,445.5C 368.743,433.38 369.743,421.38 370.5,409.5C 371.473,407.052 371.806,404.385 371.5,401.5C 380.167,401.5 388.833,401.5 397.5,401.5C 397.5,415.167 397.5,428.833 397.5,442.5 Z"/></g>
<g><path style="opacity:1" fill="#bb2e31" d="M 709.5,408.5 C 712.755,413.747 715.922,419.08 719,424.5C 722.13,423.016 725.297,421.683 728.5,420.5C 727.748,422.1 726.748,423.6 725.5,425C 722.135,425.287 719.135,426.454 716.5,428.5C 715.548,427.467 715.548,426.3 716.5,425C 715.409,423.238 714.409,421.404 713.5,419.5C 712.833,420.167 712.167,420.833 711.5,421.5C 711.167,421 710.833,420.5 710.5,420C 711.167,419 711.833,418 712.5,417C 710.814,414.397 709.814,411.564 709.5,408.5 Z"/></g>
<g><path style="opacity:1" fill="#500808" d="M 206.5,427.5 C 206.171,441.344 206.504,455.01 207.5,468.5C 207.5,468.833 207.5,469.167 207.5,469.5C 206.17,462.867 205.503,455.867 205.5,448.5C 205.5,441.325 205.834,434.325 206.5,427.5 Z"/></g>
<g><path style="opacity:1" fill="#9e2e32" d="M 206.5,427.5 C 214.167,427.5 221.833,427.5 229.5,427.5C 229.483,435.701 228.817,443.701 227.5,451.5C 227.816,443.643 227.816,435.976 227.5,428.5C 220.833,428.5 214.167,428.5 207.5,428.5C 207.5,440.5 207.5,452.5 207.5,464.5C 207.5,465.167 207.5,465.833 207.5,466.5C 207.5,467.167 207.5,467.833 207.5,468.5C 206.504,455.01 206.171,441.344 206.5,427.5 Z"/></g>
<g><path style="opacity:1" fill="#d82f2f" d="M 227.5,428.5 C 227.119,429.931 226.119,430.764 224.5,431C 226.052,435.481 226.719,440.147 226.5,445C 226.167,448.5 225.833,452 225.5,455.5C 224.672,450.868 224.172,446.202 224,441.5C 223.833,445.167 223.667,448.833 223.5,452.5C 223.542,456.595 224.208,460.429 225.5,464C 219.509,464.499 213.509,464.666 207.5,464.5C 207.5,452.5 207.5,440.5 207.5,428.5C 214.167,428.5 220.833,428.5 227.5,428.5 Z"/></g>
<g><path style="opacity:1" fill="#d63030" d="M 282.5,469.5 C 273.5,469.5 264.5,469.5 255.5,469.5C 255.5,463.5 255.5,457.5 255.5,451.5C 256.29,450.391 256.79,449.058 257,447.5C 257.5,441.175 257.666,434.842 257.5,428.5C 265.833,428.5 274.167,428.5 282.5,428.5C 282.5,442.167 282.5,455.833 282.5,469.5 Z"/></g>
<g><path style="opacity:1" fill="#d72f30" d="M 396.5,485.5 C 396.736,496.917 395.903,508.25 394,519.5C 392.26,520.716 391.26,522.382 391,524.5C 389.871,526.141 388.371,527.141 386.5,527.5C 375.205,528.434 363.871,528.768 352.5,528.5C 352.662,530.527 352.495,532.527 352,534.5C 351.444,532.405 350.944,532.238 350.5,534C 351.076,535.714 352.243,536.881 354,537.5C 354.566,539.723 355.4,541.723 356.5,543.5C 357.434,544.568 357.768,545.901 357.5,547.5C 357.511,549.547 357.844,551.547 358.5,553.5C 358.167,554.167 357.833,554.833 357.5,555.5C 356.749,554.624 356.249,553.624 356,552.5C 354.904,556.992 356.404,558.658 360.5,557.5C 362.373,557.482 362.706,557.982 361.5,559C 358.547,559.892 355.881,559.392 353.5,557.5C 352.692,557.808 352.025,558.308 351.5,559C 348.333,559.167 345.167,559.333 342,559.5C 338.307,559.416 334.807,558.75 331.5,557.5C 329.907,559.66 328.24,559.827 326.5,558C 330.131,557.794 330.465,556.627 327.5,554.5C 326.667,555.5 325.833,556.5 325,557.5C 324.547,553.781 326.047,552.447 329.5,553.5C 334.236,550.43 336.236,546.097 335.5,540.5C 336.5,540.5 337.5,540.5 338.5,540.5C 338.469,544.276 339.136,544.443 340.5,541C 338.308,538.394 337.974,535.561 339.5,532.5C 343.076,525.679 346.41,518.679 349.5,511.5C 350.859,510.993 351.859,509.993 352.5,508.5C 353.251,509.376 353.751,510.376 354,511.5C 354.595,503.725 356.595,496.391 360,489.5C 359.816,492.784 361.316,494.784 364.5,495.5C 366.404,493.469 366.571,491.469 365,489.5C 364.751,490.624 364.251,491.624 363.5,492.5C 362.613,490.117 361.613,487.784 360.5,485.5C 361.774,482.633 362.607,479.633 363,476.5C 363.5,475.333 364.333,474.5 365.5,474C 364.544,470.606 364.211,467.106 364.5,463.5C 366.739,458.518 367.739,453.184 367.5,447.5C 367.5,446.833 367.5,446.167 367.5,445.5C 368.15,445.196 368.817,444.863 369.5,444.5C 370.244,430.456 371.244,416.456 372.5,402.5C 380.5,402.5 388.5,402.5 396.5,402.5C 396.5,430.167 396.5,457.833 396.5,485.5 Z"/></g>
<g><path style="opacity:1" fill="#7b1e21" d="M 509.5,432.5 C 509.556,437.731 508.889,442.731 507.5,447.5C 507.189,442.234 507.855,437.234 509.5,432.5 Z"/></g>
<g><path style="opacity:1" fill="#b53535" d="M 641.5,419.5 C 641.5,419.833 641.5,420.167 641.5,420.5C 641.5,427.5 641.5,434.5 641.5,441.5C 621.5,441.5 601.5,441.5 581.5,441.5C 600.993,440.503 620.66,440.17 640.5,440.5C 640.175,433.313 640.509,426.313 641.5,419.5 Z"/></g>
<g><path style="opacity:1" fill="#7e1d1e" d="M 282.5,469.5 C 282.5,455.833 282.5,442.167 282.5,428.5C 274.167,428.5 265.833,428.5 257.5,428.5C 257.666,434.842 257.5,441.175 257,447.5C 256.79,449.058 256.29,450.391 255.5,451.5C 256.099,443.514 256.432,435.514 256.5,427.5C 265.5,427.5 274.5,427.5 283.5,427.5C 283.829,441.677 283.496,455.677 282.5,469.5 Z"/></g>
<g><path style="opacity:1" fill="#8d282a" d="M 367.5,447.5 C 367.739,453.184 366.739,458.518 364.5,463.5C 364.656,457.884 365.656,452.551 367.5,447.5 Z"/></g>
<g><path style="opacity:1" fill="#7d2022" d="M 507.5,447.5 C 507.638,452.414 506.972,457.081 505.5,461.5C 505.362,456.586 506.028,451.919 507.5,447.5 Z"/></g>
<g><path style="opacity:1" fill="#c83333" d="M 227.5,428.5 C 227.816,435.976 227.816,443.643 227.5,451.5C 227.575,457.529 227.241,463.529 226.5,469.5C 220.167,469.5 213.833,469.5 207.5,469.5C 207.5,469.167 207.5,468.833 207.5,468.5C 228.833,467.833 228.833,467.167 207.5,466.5C 207.5,465.833 207.5,465.167 207.5,464.5C 213.509,464.666 219.509,464.499 225.5,464C 224.208,460.429 223.542,456.595 223.5,452.5C 223.667,448.833 223.833,445.167 224,441.5C 224.172,446.202 224.672,450.868 225.5,455.5C 225.833,452 226.167,448.5 226.5,445C 226.719,440.147 226.052,435.481 224.5,431C 226.119,430.764 227.119,429.931 227.5,428.5 Z"/></g>
<g><path style="opacity:1" fill="#e32a2a" d="M 207.5,466.5 C 228.833,467.167 228.833,467.833 207.5,468.5C 207.5,467.833 207.5,467.167 207.5,466.5 Z"/></g>
<g><path style="opacity:1" fill="#9c2d2d" d="M 640.5,495.5 C 640.5,487.167 640.5,478.833 640.5,470.5C 630.833,470.5 621.167,470.5 611.5,470.5C 611.5,478.833 611.5,487.167 611.5,495.5C 620.833,495.5 630.167,495.5 639.5,495.5C 630.009,496.658 620.342,496.825 610.5,496C 609.516,487.251 609.183,478.418 609.5,469.5C 620.167,469.5 630.833,469.5 641.5,469.5C 641.826,478.349 641.493,487.016 640.5,495.5 Z"/></g>
<g><path style="opacity:1" fill="#621110" d="M 505.5,463.5 C 505.5,465.833 505.5,468.167 505.5,470.5C 526.673,470.169 547.673,470.503 568.5,471.5C 547.167,471.5 525.833,471.5 504.5,471.5C 504.194,468.615 504.527,465.948 505.5,463.5 Z"/></g>
<g><path style="opacity:1" fill="#d82f30" d="M 640.5,495.5 C 640.167,495.5 639.833,495.5 639.5,495.5C 630.167,495.5 620.833,495.5 611.5,495.5C 611.5,487.167 611.5,478.833 611.5,470.5C 621.167,470.5 630.833,470.5 640.5,470.5C 640.5,478.833 640.5,487.167 640.5,495.5 Z"/></g>
<g><path style="opacity:1" fill="#c12f30" d="M 364.5,463.5 C 364.211,467.106 364.544,470.606 365.5,474C 364.333,474.5 363.5,475.333 363,476.5C 362.607,479.633 361.774,482.633 360.5,485.5C 361.613,487.784 362.613,490.117 363.5,492.5C 364.251,491.624 364.751,490.624 365,489.5C 366.571,491.469 366.404,493.469 364.5,495.5C 361.316,494.784 359.816,492.784 360,489.5C 356.595,496.391 354.595,503.725 354,511.5C 353.751,510.376 353.251,509.376 352.5,508.5C 351.859,509.993 350.859,510.993 349.5,511.5C 355.765,495.736 360.765,479.736 364.5,463.5 Z"/></g>
<g><path style="opacity:1" fill="#873233" d="M 672.5,469.5 C 672.833,469.5 673.167,469.5 673.5,469.5C 673.5,478.167 673.5,486.833 673.5,495.5C 682.833,495.5 692.167,495.5 701.5,495.5C 701.5,486.833 701.5,478.167 701.5,469.5C 702.479,472.625 702.813,475.958 702.5,479.5C 702.5,485.167 702.5,490.833 702.5,496.5C 692.5,496.5 682.5,496.5 672.5,496.5C 672.5,487.5 672.5,478.5 672.5,469.5 Z"/></g>
<g><path style="opacity:1" fill="#d73030" d="M 673.5,469.5 C 682.833,469.5 692.167,469.5 701.5,469.5C 701.5,478.167 701.5,486.833 701.5,495.5C 692.167,495.5 682.833,495.5 673.5,495.5C 673.5,486.833 673.5,478.167 673.5,469.5 Z"/></g>
<g><path style="opacity:1" fill="#7d2625" d="M 179.5,496.5 C 193.5,496.5 207.5,496.5 221.5,496.5C 221.768,498.099 221.434,499.432 220.5,500.5C 220.5,499.5 220.5,498.5 220.5,497.5C 206.656,497.829 192.99,497.496 179.5,496.5 Z"/></g>
<g><path style="opacity:1" fill="#210000" d="M 672.5,469.5 C 672.5,478.5 672.5,487.5 672.5,496.5C 682.5,496.5 692.5,496.5 702.5,496.5C 702.5,490.833 702.5,485.167 702.5,479.5C 703.49,485.31 703.823,491.31 703.5,497.5C 692.833,497.5 682.167,497.5 671.5,497.5C 671.173,487.985 671.506,478.652 672.5,469.5 Z"/></g>
<g><path style="opacity:1" fill="#bb3534" d="M 175.5,406.5 C 176.117,406.611 176.617,406.944 177,407.5C 176.839,437.517 177.673,467.184 179.5,496.5C 192.99,497.496 206.656,497.829 220.5,497.5C 220.5,498.5 220.5,499.5 220.5,500.5C 219.767,505.445 218.434,510.112 216.5,514.5C 216.915,509.403 217.915,504.403 219.5,499.5C 205.846,498.667 192.179,498.167 178.5,498C 177.328,497.581 176.328,496.915 175.5,496C 176.823,466.196 176.823,436.363 175.5,406.5 Z"/></g>
<g><path style="opacity:1" fill="#8d2221" d="M 471.5,499.5 C 493.5,499.5 515.5,499.5 537.5,499.5C 537.828,510.679 537.495,521.679 536.5,532.5C 536.5,521.833 536.5,511.167 536.5,500.5C 514.66,500.831 492.994,500.497 471.5,499.5 Z"/></g>
<g><path style="opacity:1" fill="#c63032" d="M 313.5,372.5 C 313.173,381.682 313.507,390.682 314.5,399.5C 314.5,399.833 314.5,400.167 314.5,400.5C 323.318,401.493 332.318,401.827 341.5,401.5C 341.5,406.167 341.5,410.833 341.5,415.5C 341.745,421.084 341.078,426.417 339.5,431.5C 340.148,421.847 340.482,412.18 340.5,402.5C 332.5,402.5 324.5,402.5 316.5,402.5C 316,526.498 315.167,526.498 314,402.5C 313.667,402.833 313.333,403.167 313,403.5C 312.333,434.833 312.333,466.167 313,497.5C 313.202,499.256 313.702,500.922 314.5,502.5C 316.027,498.634 318.36,495.301 321.5,492.5C 322.141,493.993 323.141,494.993 324.5,495.5C 317.471,514.536 306.638,531.203 292,545.5C 291.387,547.495 291.887,549.162 293.5,550.5C 292.417,550.461 291.417,550.127 290.5,549.5C 289.5,552.167 288.5,552.167 287.5,549.5C 288.934,546.953 290.6,544.619 292.5,542.5C 291.167,539.833 291.833,539.167 294.5,540.5C 294.669,538.883 295.003,537.216 295.5,535.5C 296.167,536.167 296.833,536.833 297.5,537.5C 298.977,534.545 300.644,531.212 302.5,527.5C 303.833,527.167 305.167,526.833 306.5,526.5C 305.127,523.617 305.793,521.283 308.5,519.5C 309.192,520.025 309.692,520.692 310,521.5C 310.72,519.888 310.554,518.388 309.5,517C 310.849,516.228 311.682,515.061 312,513.5C 312.308,514.308 312.808,514.975 313.5,515.5C 315.11,512.316 316.11,508.983 316.5,505.5C 311.094,506.265 309.094,503.931 310.5,498.5C 300.5,498.5 290.5,498.5 280.5,498.5C 280.333,521.836 280.5,545.169 281,568.5C 282.688,570.848 284.522,571.015 286.5,569C 294.882,568.197 303.215,568.364 311.5,569.5C 312.562,568.575 312.562,567.575 311.5,566.5C 322.722,556.622 332.055,545.288 339.5,532.5C 337.974,535.561 338.308,538.394 340.5,541C 339.136,544.443 338.469,544.276 338.5,540.5C 337.5,540.5 336.5,540.5 335.5,540.5C 336.236,546.097 334.236,550.43 329.5,553.5C 326.047,552.447 324.547,553.781 325,557.5C 325.833,556.5 326.667,555.5 327.5,554.5C 330.465,556.627 330.131,557.794 326.5,558C 328.24,559.827 329.907,559.66 331.5,557.5C 334.807,558.75 338.307,559.416 342,559.5C 345.167,559.333 348.333,559.167 351.5,559C 352.025,558.308 352.692,557.808 353.5,557.5C 355.881,559.392 358.547,559.892 361.5,559C 362.706,557.982 362.373,557.482 360.5,557.5C 356.404,558.658 354.904,556.992 356,552.5C 356.249,553.624 356.749,554.624 357.5,555.5C 357.833,554.833 358.167,554.167 358.5,553.5C 357.844,551.547 357.511,549.547 357.5,547.5C 359.04,549.838 359.706,552.505 359.5,555.5C 373.566,557.137 387.566,556.804 401.5,554.5C 399.525,556.09 397.192,557.257 394.5,558C 396.833,558.333 399.167,558.667 401.5,559C 400.833,559.333 400.167,559.667 399.5,560C 372.833,560.333 346.167,560.667 319.5,561C 318,562.5 316.5,564 315,565.5C 314.46,567.135 314.96,568.468 316.5,569.5C 306.465,569.848 296.798,570.848 287.5,572.5C 285.958,571.699 284.292,571.366 282.5,571.5C 281.542,571.047 280.708,570.381 280,569.5C 279.5,545.502 279.333,521.502 279.5,497.5C 290.167,497.5 300.833,497.5 311.5,497.5C 311.5,464.833 311.5,432.167 311.5,399.5C 312.167,390.5 312.833,381.5 313.5,372.5 Z"/></g>
<g><path style="opacity:1" fill="#d82f30" d="M 293.5,550.5 C 299.823,555.491 305.823,560.824 311.5,566.5C 312.562,567.575 312.562,568.575 311.5,569.5C 303.215,568.364 294.882,568.197 286.5,569C 284.522,571.015 282.688,570.848 281,568.5C 280.5,545.169 280.333,521.836 280.5,498.5C 290.5,498.5 300.5,498.5 310.5,498.5C 309.094,503.931 311.094,506.265 316.5,505.5C 316.11,508.983 315.11,512.316 313.5,515.5C 312.808,514.975 312.308,514.308 312,513.5C 311.682,515.061 310.849,516.228 309.5,517C 310.554,518.388 310.72,519.888 310,521.5C 309.692,520.692 309.192,520.025 308.5,519.5C 305.793,521.283 305.127,523.617 306.5,526.5C 305.167,526.833 303.833,527.167 302.5,527.5C 300.644,531.212 298.977,534.545 297.5,537.5C 296.833,536.833 296.167,536.167 295.5,535.5C 295.003,537.216 294.669,538.883 294.5,540.5C 291.833,539.167 291.167,539.833 292.5,542.5C 290.6,544.619 288.934,546.953 287.5,549.5C 288.5,552.167 289.5,552.167 290.5,549.5C 291.417,550.127 292.417,550.461 293.5,550.5 Z"/></g>
<g><path style="opacity:1" fill="#ea8d8b" d="M 808.5,514.5 C 808.706,517.495 808.04,520.162 806.5,522.5C 806.565,519.572 807.232,516.905 808.5,514.5 Z"/></g>
<g><path style="opacity:1" fill="#7a1f1c" d="M 730.5,441.5 C 731.498,468.995 731.831,496.662 731.5,524.5C 712.167,524.5 692.833,524.5 673.5,524.5C 673.5,536.5 673.5,548.5 673.5,560.5C 674.833,560.5 676.167,560.5 677.5,560.5C 676.081,561.451 674.415,561.784 672.5,561.5C 672.5,548.833 672.5,536.167 672.5,523.5C 691.833,523.5 711.167,523.5 730.5,523.5C 730.5,496.5 730.5,469.5 730.5,442.5C 730.5,442.167 730.5,441.833 730.5,441.5 Z"/></g>
<g><path style="opacity:1" fill="#9c292a" d="M 427.5,371.5 C 429.1,422.698 428.6,474.032 426,525.5C 425.125,528.401 423.958,531.068 422.5,533.5C 423.66,526.214 424.493,518.881 425,511.5C 427.148,465.192 427.981,418.859 427.5,372.5C 427.5,372.167 427.5,371.833 427.5,371.5 Z"/></g>
<g><path style="opacity:1" fill="#8c2425" d="M 581.5,523.5 C 601.5,523.5 621.5,523.5 641.5,523.5C 641.5,537.5 641.5,551.5 641.5,565.5C 635.516,566.074 629.516,566.407 623.5,566.5C 628.903,564.795 634.57,564.128 640.5,564.5C 640.5,551.167 640.5,537.833 640.5,524.5C 620.66,524.83 600.993,524.497 581.5,523.5 Z"/></g>
<g><path style="opacity:1" fill="#ab3131" d="M 386.5,527.5 C 385.319,529.067 383.653,529.901 381.5,530C 372.135,530.064 362.801,530.231 353.5,530.5C 355.124,534.701 356.124,539.034 356.5,543.5C 355.4,541.723 354.566,539.723 354,537.5C 352.243,536.881 351.076,535.714 350.5,534C 350.944,532.238 351.444,532.405 352,534.5C 352.495,532.527 352.662,530.527 352.5,528.5C 363.871,528.768 375.205,528.434 386.5,527.5 Z"/></g>
<g><path style="opacity:1" fill="#7e1e1f" d="M 568.5,511.5 C 568.666,527.521 568.166,543.521 567,559.5C 566.315,565.081 565.148,570.414 563.5,575.5C 566.029,554.087 567.695,532.754 568.5,511.5 Z"/></g>
<g><path style="opacity:1" fill="#591314" d="M 703.5,536.5 C 701.494,537.485 699.827,538.818 698.5,540.5C 697.596,539.791 697.263,538.791 697.5,537.5C 699.5,537.167 701.5,536.833 703.5,536.5 Z"/></g>
<g><path style="opacity:1" fill="#c13432" d="M 251.5,582.5 C 252.363,584.421 253.029,586.421 253.5,588.5C 251.468,587.439 250.134,585.772 249.5,583.5C 248.808,584.025 248.308,584.692 248,585.5C 247.837,583.324 247.004,581.491 245.5,580C 246.047,579.075 246.713,578.242 247.5,577.5C 248.666,555.508 248.833,533.508 248,511.5C 247.217,516.627 246.05,521.627 244.5,526.5C 246.915,528.009 247.081,529.676 245,531.5C 244.667,530.5 244.333,529.5 244,528.5C 242.953,530.708 241.453,532.374 239.5,533.5C 242.771,525.021 245.437,516.354 247.5,507.5C 248.222,507.082 248.722,506.416 249,505.5C 249.333,530.5 249.667,555.5 250,580.5C 250.278,581.416 250.778,582.082 251.5,582.5 Z"/></g>
<g><path style="opacity:1" fill="#5c1615" d="M 251.5,582.5 C 250.778,582.082 250.278,581.416 250,580.5C 249.667,555.5 249.333,530.5 249,505.5C 248.722,506.416 248.222,507.082 247.5,507.5C 247.435,504.529 248.269,501.862 250,499.5C 250.201,527.19 250.701,554.856 251.5,582.5 Z"/></g>
<g><path style="opacity:1" fill="#b02d2f" d="M 425.5,543.5 C 430.128,544.71 434.795,545.71 439.5,546.5C 439.729,542.953 440.729,542.953 442.5,546.5C 443.705,549.988 443.705,553.322 442.5,556.5C 442.5,554.167 442.5,551.833 442.5,549.5C 436.294,548.656 430.627,546.656 425.5,543.5 Z"/></g>
<g><path style="opacity:1" fill="#ebaba8" d="M 802.5,543.5 C 802.277,547.162 801.277,550.495 799.5,553.5C 799.723,549.838 800.723,546.505 802.5,543.5 Z"/></g>
<g><path style="opacity:1" fill="#d62f2f" d="M 406.5,570.5 C 404.073,570.523 401.74,571.023 399.5,572C 362.168,572.5 324.835,572.667 287.5,572.5C 296.798,570.848 306.465,569.848 316.5,569.5C 314.96,568.468 314.46,567.135 315,565.5C 316.5,564 318,562.5 319.5,561C 346.167,560.667 372.833,560.333 399.5,560C 400.167,559.667 400.833,559.333 401.5,559C 399.167,558.667 396.833,558.333 394.5,558C 397.192,557.257 399.525,556.09 401.5,554.5C 405.441,552.262 409.441,549.929 413.5,547.5C 413.855,553.518 413.022,559.518 411,565.5C 410.004,567.66 408.504,569.327 406.5,570.5 Z"/></g>
<g><path style="opacity:1" fill="#962a28" d="M 536.5,535.5 C 536.614,545.504 535.281,555.171 532.5,564.5C 533.644,554.671 534.978,545.005 536.5,535.5 Z"/></g>
<g><path style="opacity:1" fill="#862122" d="M 442.5,556.5 C 442.595,561.887 442.095,567.22 441,572.5C 440.617,573.056 440.117,573.389 439.5,573.5C 440.399,567.685 441.399,562.018 442.5,556.5 Z"/></g>
<g><path style="opacity:1" fill="#7f1d1f" d="M 623.5,566.5 C 615.701,567.817 607.701,568.483 599.5,568.5C 607.271,566.845 615.271,566.178 623.5,566.5 Z"/></g>
<g><path style="opacity:1" fill="#b23131" d="M 406.5,570.5 C 405.4,571.558 404.066,572.392 402.5,573C 363.167,573.667 323.833,573.667 284.5,573C 283.584,572.722 282.918,572.222 282.5,571.5C 284.292,571.366 285.958,571.699 287.5,572.5C 324.835,572.667 362.168,572.5 399.5,572C 401.74,571.023 404.073,570.523 406.5,570.5 Z"/></g>
<g><path style="opacity:1" fill="#a62726" d="M 525.5,571.5 C 521.89,573.574 517.89,574.741 513.5,575C 502.328,574.923 491.328,575.09 480.5,575.5C 479.957,575.44 479.624,575.107 479.5,574.5C 488.832,573.278 498.165,573.278 507.5,574.5C 513.425,572.968 519.425,571.968 525.5,571.5 Z"/></g>
<g><path style="opacity:1" fill="#a22e2e" d="M 480.5,575.5 C 483.064,580.422 484.397,585.755 484.5,591.5C 482.915,589.169 481.749,586.503 481,583.5C 480.503,580.854 480.336,578.187 480.5,575.5 Z"/></g>
<g><path style="opacity:1" fill="#b72f2f" d="M 701.5,584.5 C 699.524,586.011 697.191,586.844 694.5,587C 694.167,587.333 693.833,587.667 693.5,588C 695.577,588.192 697.577,588.692 699.5,589.5C 698.167,589.833 696.833,590.167 695.5,590.5C 692.833,589.833 690.167,589.167 687.5,588.5C 679.929,590.156 672.262,591.156 664.5,591.5C 676.588,588.605 688.922,586.272 701.5,584.5 Z"/></g>
<g><path style="opacity:1" fill="#b62e2c" d="M 439.5,575.5 C 439.137,579.984 438.137,584.317 436.5,588.5C 436.148,591.353 436.648,594.019 438,596.5C 434.101,595.34 430.267,595.673 426.5,597.5C 429.406,595.853 431.74,593.52 433.5,590.5C 435.837,585.514 437.837,580.514 439.5,575.5 Z"/></g>
<g><path style="opacity:1" fill="#8d2125" d="M 748.5,591.5 C 749.801,592.884 749.801,594.384 748.5,596C 745.688,597.549 742.688,598.382 739.5,598.5C 741.96,597.109 744.626,595.942 747.5,595C 748.337,593.989 748.67,592.822 748.5,591.5 Z"/></g>
<g><path style="opacity:1" fill="#90272a" d="M 575.5,585.5 C 576.222,585.918 576.722,586.584 577,587.5C 577.583,591.832 578.083,596.165 578.5,600.5C 577.235,599.486 576.569,597.986 576.5,596C 576.001,592.51 575.668,589.01 575.5,585.5 Z"/></g>
<g><path style="opacity:1" fill="#801f23" d="M 614.5,597.5 C 609.071,599.012 603.404,599.679 597.5,599.5C 602.929,597.988 608.596,597.321 614.5,597.5 Z"/></g>
<g><path style="opacity:1" fill="#902527" d="M 593.5,599.5 C 590.618,600.913 587.451,601.579 584,601.5C 581.967,601.494 580.134,601.161 578.5,600.5C 583.493,600.084 588.493,599.751 593.5,599.5 Z"/></g>
<g><path style="opacity:1" fill="#902a2d" d="M 531.5,603.5 C 530.391,604.29 529.058,604.79 527.5,605C 515.659,605.826 503.993,605.659 492.5,604.5C 505.518,604.661 518.518,604.327 531.5,603.5 Z"/></g>
<g><path style="opacity:1" fill="#0f0100" d="M 321.5,651.5 C 336.077,653.593 341.911,661.926 339,676.5C 337.92,678.996 336.586,681.33 335,683.5C 332.586,685.291 330.086,686.957 327.5,688.5C 333.735,690.74 338.402,694.74 341.5,700.5C 342.992,706.932 342.658,713.265 340.5,719.5C 338.5,722.167 336.167,724.5 333.5,726.5C 330.821,727.226 328.154,728.059 325.5,729C 311.171,729.5 296.837,729.667 282.5,729.5C 282.5,703.5 282.5,677.5 282.5,651.5C 295.5,651.5 308.5,651.5 321.5,651.5 Z"/></g>
<g><path style="opacity:1" fill="#d72f30" d="M 323.5,655.5 C 334.071,658.632 337.904,665.632 335,676.5C 332.953,680.048 330.12,682.715 326.5,684.5C 313.526,685.401 300.526,685.735 287.5,685.5C 287.5,675.5 287.5,665.5 287.5,655.5C 299.5,655.5 311.5,655.5 323.5,655.5 Z"/></g>
<g><path style="opacity:1" fill="#692b28" d="M 478.5,649.5 C 479.167,667.167 479.833,684.833 480.5,702.5C 480.44,703.043 480.107,703.376 479.5,703.5C 478.5,685.512 478.167,667.512 478.5,649.5 Z"/></g>
<g><path style="opacity:1" fill="#120001" d="M 590.5,656.5 C 600.833,656.5 611.167,656.5 621.5,656.5C 621.5,657.5 621.5,658.5 621.5,659.5C 611.167,659.5 600.833,659.5 590.5,659.5C 590.5,658.5 590.5,657.5 590.5,656.5 Z"/></g>
<g><path style="opacity:1" fill="#ac3335" d="M 590.5,656.5 C 590.5,657.5 590.5,658.5 590.5,659.5C 600.833,659.5 611.167,659.5 621.5,659.5C 611.013,660.494 600.346,660.828 589.5,660.5C 589.232,658.901 589.566,657.568 590.5,656.5 Z"/></g>
<g><path style="opacity:1" fill="#7c3133" d="M 323.5,655.5 C 311.5,655.5 299.5,655.5 287.5,655.5C 287.5,665.5 287.5,675.5 287.5,685.5C 287.5,686.167 287.5,686.833 287.5,687.5C 286.505,676.679 286.172,665.679 286.5,654.5C 299.011,654.171 311.345,654.505 323.5,655.5 Z"/></g>
<g><path style="opacity:1" fill="#0e0302" d="M 459.5,729.5 C 458.5,729.5 457.5,729.5 456.5,729.5C 456.829,716.323 456.495,703.323 455.5,690.5C 454.966,682.134 450.633,676.967 442.5,675C 431.077,673.634 423.577,678.467 420,689.5C 419.5,702.829 419.333,716.163 419.5,729.5C 418.167,729.5 416.833,729.5 415.5,729.5C 415.5,710.5 415.5,691.5 415.5,672.5C 416.833,672.5 418.167,672.5 419.5,672.5C 419.187,675.247 419.52,677.914 420.5,680.5C 421.107,680.376 421.44,680.043 421.5,679.5C 426.271,673.846 432.438,671.179 440,671.5C 450.033,671.206 456.367,675.872 459,685.5C 459.5,700.163 459.667,714.83 459.5,729.5 Z"/></g>
<g><path style="opacity:1" fill="#ad2d2e" d="M 531.5,679.5 C 529.933,678.319 529.099,676.653 529,674.5C 527.89,672.963 526.39,672.297 524.5,672.5C 525.699,676.099 526.699,679.765 527.5,683.5C 526.5,683.5 525.5,683.5 524.5,683.5C 524.354,679.481 524.021,675.481 523.5,671.5C 525.833,671.5 528.167,671.5 530.5,671.5C 530.401,674.237 530.735,676.904 531.5,679.5 Z"/></g>
<g><path style="opacity:1" fill="#a02a28" d="M 326.5,684.5 C 324.852,685.927 322.852,686.76 320.5,687C 309.505,687.5 298.505,687.667 287.5,687.5C 287.5,686.833 287.5,686.167 287.5,685.5C 300.526,685.735 313.526,685.401 326.5,684.5 Z"/></g>
<g><path style="opacity:1" fill="#ab2d2c" d="M 567.5,687.5 C 569.368,682.562 571.035,677.562 572.5,672.5C 570.446,672.365 568.779,673.032 567.5,674.5C 567.5,673.5 567.5,672.5 567.5,671.5C 569.5,671.5 571.5,671.5 573.5,671.5C 573.493,674.038 573.159,676.538 572.5,679C 572.945,680.447 573.612,681.78 574.5,683C 574.167,683.5 573.833,684 573.5,684.5C 571.397,682.12 570.23,682.787 570,686.5C 569.329,687.252 568.496,687.586 567.5,687.5 Z"/></g>
<g><path style="opacity:1" fill="#b62f30" d="M 287.5,692.5 C 298.988,691.505 310.655,691.172 322.5,691.5C 328.022,691.702 332.356,694.036 335.5,698.5C 334.504,698.414 333.671,698.748 333,699.5C 332.517,698.552 332.351,697.552 332.5,696.5C 331.07,696.421 329.736,696.754 328.5,697.5C 328.331,696.603 327.998,695.603 327.5,694.5C 326.205,693.902 324.872,693.402 323.5,693C 311.505,692.5 299.505,692.333 287.5,692.5 Z"/></g>
<g><path style="opacity:1" fill="#110202" d="M 399.5,681.5 C 400.841,685.542 402.174,689.542 403.5,693.5C 403.5,696.5 403.5,699.5 403.5,702.5C 387.833,702.5 372.167,702.5 356.5,702.5C 355.91,707.64 356.91,712.307 359.5,716.5C 363.026,723.998 369.026,727.998 377.5,728.5C 380.438,728.432 383.105,727.766 385.5,726.5C 386.995,726.011 388.329,725.345 389.5,724.5C 391.371,724.141 392.871,723.141 394,721.5C 396.22,718.46 397.72,715.127 398.5,711.5C 399.833,711.5 401.167,711.5 402.5,711.5C 401.571,718.027 398.571,723.36 393.5,727.5C 385.917,731.373 377.917,732.373 369.5,730.5C 361.819,727.652 356.652,722.318 354,714.5C 349.23,699.849 352.063,687.015 362.5,676C 376.287,668.526 388.62,670.359 399.5,681.5 Z"/></g>
<g><path style="opacity:1" fill="#d62f30" d="M 383.5,675.5 C 394.964,678.726 400.297,686.393 399.5,698.5C 385.5,698.5 371.5,698.5 357.5,698.5C 357.911,694.779 358.578,691.112 359.5,687.5C 360.995,683.327 363.662,679.994 367.5,677.5C 372.678,675.915 378.012,675.248 383.5,675.5 Z"/></g>
<g><path style="opacity:1" fill="#802122" d="M 383.5,675.5 C 378.012,675.248 372.678,675.915 367.5,677.5C 368.842,676.207 370.509,675.374 372.5,675C 376.358,674.19 380.024,674.357 383.5,675.5 Z"/></g>
<g><path style="opacity:1" fill="#110102" d="M 478.5,649.5 C 478.167,667.512 478.5,685.512 479.5,703.5C 480.107,703.376 480.44,703.043 480.5,702.5C 491.77,693.566 502.437,683.899 512.5,673.5C 514.768,672.456 517.101,672.289 519.5,673C 511.505,680.328 503.505,687.661 495.5,695C 503.962,706.299 512.628,717.465 521.5,728.5C 519.051,729.91 516.884,729.576 515,727.5C 508.047,717.256 500.38,707.589 492,698.5C 490.699,698.639 489.866,699.305 489.5,700.5C 485.544,702.788 482.211,705.788 479.5,709.5C 478.509,715.979 478.176,722.646 478.5,729.5C 477.167,729.5 475.833,729.5 474.5,729.5C 474.5,702.833 474.5,676.167 474.5,649.5C 475.833,649.5 477.167,649.5 478.5,649.5 Z"/></g>
<g><path style="opacity:1" fill="#d72f30" d="M 287.5,692.5 C 299.505,692.333 311.505,692.5 323.5,693C 324.872,693.402 326.205,693.902 327.5,694.5C 327.998,695.603 328.331,696.603 328.5,697.5C 329.736,696.754 331.07,696.421 332.5,696.5C 332.351,697.552 332.517,698.552 333,699.5C 333.671,698.748 334.504,698.414 335.5,698.5C 336.6,699.605 337.267,700.938 337.5,702.5C 337.5,706.5 337.5,710.5 337.5,714.5C 335.248,721.07 330.582,724.737 323.5,725.5C 311.5,725.5 299.5,725.5 287.5,725.5C 287.5,714.5 287.5,703.5 287.5,692.5 Z"/></g>
<g><path style="opacity:1" fill="#8e2021" d="M 359.5,687.5 C 358.578,691.112 357.911,694.779 357.5,698.5C 371.5,698.5 385.5,698.5 399.5,698.5C 385.343,699.496 371.01,699.829 356.5,699.5C 356.336,696.813 356.503,694.146 357,691.5C 357.2,689.68 358.034,688.347 359.5,687.5 Z"/></g>
<g><path style="opacity:1" fill="#85292c" d="M 631.5,692.5 C 632.222,692.918 632.722,693.584 633,694.5C 633.814,699.02 633.647,703.354 632.5,707.5C 632.663,702.453 632.329,697.453 631.5,692.5 Z"/></g>
<g><path style="opacity:1" fill="#732522" d="M 403.5,693.5 C 404.479,696.625 404.813,699.958 404.5,703.5C 399.167,703.5 393.833,703.5 388.5,703.5C 378.167,703.5 367.833,703.5 357.5,703.5C 357.687,707.913 358.354,712.246 359.5,716.5C 356.91,712.307 355.91,707.64 356.5,702.5C 372.167,702.5 387.833,702.5 403.5,702.5C 403.5,699.5 403.5,696.5 403.5,693.5 Z"/></g>
<g><path style="opacity:1" fill="#812525" d="M 321.5,651.5 C 308.5,651.5 295.5,651.5 282.5,651.5C 282.5,677.5 282.5,703.5 282.5,729.5C 281.502,703.339 281.169,677.005 281.5,650.5C 295.01,650.171 308.344,650.504 321.5,651.5 Z"/></g>
<g><path style="opacity:1" fill="#76292a" d="M 322.5,691.5 C 310.655,691.172 298.988,691.505 287.5,692.5C 287.5,703.5 287.5,714.5 287.5,725.5C 299.5,725.5 311.5,725.5 323.5,725.5C 311.345,726.495 299.011,726.829 286.5,726.5C 286.5,714.5 286.5,702.5 286.5,690.5C 298.678,690.172 310.678,690.505 322.5,691.5 Z"/></g>
<g><path style="opacity:1" fill="#d72f2f" d="M 388.5,703.5 C 389.828,707.147 389.828,710.814 388.5,714.5C 388.722,716.055 389.389,717.389 390.5,718.5C 389.975,719.192 389.308,719.692 388.5,720C 390.548,721.226 390.881,722.726 389.5,724.5C 388.329,725.345 386.995,726.011 385.5,726.5C 379.238,727.128 373.238,726.295 367.5,724C 369.256,723.798 370.922,723.298 372.5,722.5C 370.223,721.723 368.057,720.723 366,719.5C 365.5,719.667 365,719.833 364.5,720C 366.271,720.535 366.604,721.369 365.5,722.5C 361.983,720.616 361.649,718.283 364.5,715.5C 364.167,715.167 363.833,714.833 363.5,714.5C 362.476,715.853 361.143,716.52 359.5,716.5C 358.354,712.246 357.687,707.913 357.5,703.5C 367.833,703.5 378.167,703.5 388.5,703.5 Z"/></g>
<g><path style="opacity:1" fill="#510d0e" d="M 455.5,690.5 C 456.495,703.323 456.829,716.323 456.5,729.5C 457.5,729.5 458.5,729.5 459.5,729.5C 458.432,730.434 457.099,730.768 455.5,730.5C 455.5,717.167 455.5,703.833 455.5,690.5 Z"/></g>
<g><path style="opacity:1" fill="#7e2221" d="M 341.5,700.5 C 342.117,700.611 342.617,700.944 343,701.5C 343.667,706.5 343.667,711.5 343,716.5C 342.623,717.942 341.79,718.942 340.5,719.5C 342.658,713.265 342.992,706.932 341.5,700.5 Z"/></g>
<g><path style="opacity:1" fill="#a32f30" d="M 489.5,700.5 C 487.629,702.232 486.296,704.398 485.5,707C 483.372,707.655 481.372,708.489 479.5,709.5C 482.211,705.788 485.544,702.788 489.5,700.5 Z"/></g>
<g><path style="opacity:1" fill="#822629" d="M 337.5,702.5 C 340.167,706.5 340.167,710.5 337.5,714.5C 337.5,710.5 337.5,706.5 337.5,702.5 Z"/></g>
<g><path style="opacity:1" fill="#120302" d="M 631.5,692.5 C 632.329,697.453 632.663,702.453 632.5,707.5C 628.111,726.55 616.111,734.383 596.5,731C 593.631,729.404 590.964,727.57 588.5,725.5C 584.443,720.715 581.443,715.382 579.5,709.5C 577.463,695.773 581.463,684.273 591.5,675C 606.679,667.805 619.179,670.972 629,684.5C 629.941,687.154 630.774,689.821 631.5,692.5 Z"/></g>
<g><path style="opacity:1" fill="#a72f2f" d="M 625.5,687.5 C 627.908,691.74 628.908,696.407 628.5,701.5C 629.168,707.145 627.834,712.145 624.5,716.5C 626.79,707.006 627.123,697.339 625.5,687.5 Z"/></g>
<g><path style="opacity:1" fill="#992626" d="M 585.5,689.5 C 585.025,693.143 584.692,696.81 584.5,700.5C 585.176,705.188 585.843,709.855 586.5,714.5C 585.207,713.158 584.374,711.491 584,709.5C 583.833,706.667 583.667,703.833 583.5,701C 583.286,696.867 583.952,693.034 585.5,689.5 Z"/></g>
<g><path style="opacity:1" fill="#d52f30" d="M 625.5,687.5 C 627.123,697.339 626.79,707.006 624.5,716.5C 617.765,727.514 608.098,730.681 595.5,726C 590.934,723.357 587.934,719.523 586.5,714.5C 585.843,709.855 585.176,705.188 584.5,700.5C 584.692,696.81 585.025,693.143 585.5,689.5C 592.159,674.889 602.826,671.056 617.5,678C 621.446,680.111 624.113,683.278 625.5,687.5 Z"/></g>
<g><path style="opacity:1" fill="#d03033" d="M 421.5,679.5 C 421.44,680.043 421.107,680.376 420.5,680.5C 419.52,677.914 419.187,675.247 419.5,672.5C 418.167,672.5 416.833,672.5 415.5,672.5C 414.503,691.659 414.17,710.993 414.5,730.5C 416.167,730.5 417.833,730.5 419.5,730.5C 418.082,732.308 416.082,732.975 413.5,732.5C 412.779,723.192 412.279,713.859 412,704.5C 408.534,702.819 408.7,701.819 412.5,701.5C 412.666,696.821 412.499,692.155 412,687.5C 411.667,690.833 411.333,694.167 411,697.5C 409.853,696.542 408.853,696.875 408,698.5C 407.833,699.667 407.667,700.833 407.5,702C 407.759,704.454 408.759,706.454 410.5,708C 409.464,709.901 408.298,711.735 407,713.5C 406.257,711.355 405.424,711.189 404.5,713C 402.795,716.654 401.795,720.487 401.5,724.5C 398.594,724.957 395.928,725.957 393.5,727.5C 398.571,723.36 401.571,718.027 402.5,711.5C 401.167,711.5 399.833,711.5 398.5,711.5C 397.72,715.127 396.22,718.46 394,721.5C 392.871,723.141 391.371,724.141 389.5,724.5C 390.881,722.726 390.548,721.226 388.5,720C 389.308,719.692 389.975,719.192 390.5,718.5C 389.389,717.389 388.722,716.055 388.5,714.5C 389.828,710.814 389.828,707.147 388.5,703.5C 393.833,703.5 399.167,703.5 404.5,703.5C 404.813,699.958 404.479,696.625 403.5,693.5C 402.174,689.542 400.841,685.542 399.5,681.5C 400.077,679.348 401.244,679.015 403,680.5C 403.179,683.553 403.679,686.553 404.5,689.5C 405.5,688.5 406.5,687.5 407.5,686.5C 406.305,684.249 405.305,681.915 404.5,679.5C 405.213,676.904 405.213,674.237 404.5,671.5C 405.5,671.5 406.5,671.5 407.5,671.5C 408.92,674.261 409.587,677.261 409.5,680.5C 410.5,680.5 411.5,680.5 412.5,680.5C 412.5,677.5 412.5,674.5 412.5,671.5C 415.167,671.5 417.833,671.5 420.5,671.5C 420.194,674.385 420.527,677.052 421.5,679.5 Z"/></g>
<g><path style="opacity:1" fill="#6a2728" d="M 479.5,709.5 C 479.5,716.5 479.5,723.5 479.5,730.5C 477.585,730.784 475.919,730.451 474.5,729.5C 475.833,729.5 477.167,729.5 478.5,729.5C 478.176,722.646 478.509,715.979 479.5,709.5 Z"/></g>
<g><path style="opacity:1" fill="#740806" d="M 415.5,672.5 C 415.5,691.5 415.5,710.5 415.5,729.5C 416.833,729.5 418.167,729.5 419.5,729.5C 419.5,729.833 419.5,730.167 419.5,730.5C 417.833,730.5 416.167,730.5 414.5,730.5C 414.17,710.993 414.503,691.659 415.5,672.5 Z"/></g>
<g><path style="opacity:1" fill="#b92c2e" d="M 385.5,726.5 C 383.105,727.766 380.438,728.432 377.5,728.5C 369.026,727.998 363.026,723.998 359.5,716.5C 361.143,716.52 362.476,715.853 363.5,714.5C 363.833,714.833 364.167,715.167 364.5,715.5C 361.649,718.283 361.983,720.616 365.5,722.5C 366.604,721.369 366.271,720.535 364.5,720C 365,719.833 365.5,719.667 366,719.5C 368.057,720.723 370.223,721.723 372.5,722.5C 370.922,723.298 369.256,723.798 367.5,724C 373.238,726.295 379.238,727.128 385.5,726.5 Z"/></g>
<g><path style="opacity:1" fill="#b02f2f" d="M 579.5,709.5 C 581.443,715.382 584.443,720.715 588.5,725.5C 586.606,724.952 584.94,723.952 583.5,722.5C 582.914,722.709 582.414,723.043 582,723.5C 581.647,722.328 581.813,721.162 582.5,720C 580.555,716.777 579.555,713.277 579.5,709.5 Z"/></g>
<g><path style="opacity:1" fill="#6c1112" d="M 333.5,726.5 C 331.615,728.311 329.281,729.478 326.5,730C 311.661,730.828 296.994,730.661 282.5,729.5C 296.837,729.667 311.171,729.5 325.5,729C 328.154,728.059 330.821,727.226 333.5,726.5 Z"/></g>
<g><path style="opacity:1" fill="#a72b2b" d="M 393.5,727.5 C 392.284,729.451 390.618,730.951 388.5,732C 382.833,732.667 377.167,732.667 371.5,732C 370.584,731.722 369.918,731.222 369.5,730.5C 377.917,732.373 385.917,731.373 393.5,727.5 Z"/></g>
<g><path style="opacity:1" fill="#160403" d="M 531.5,679.5 C 535.254,689.979 539.254,700.312 543.5,710.5C 544.391,714.844 546.058,718.844 548.5,722.5C 551.326,717.846 553.326,712.846 554.5,707.5C 559.2,696.773 563.534,685.773 567.5,674.5C 568.779,673.032 570.446,672.365 572.5,672.5C 571.035,677.562 569.368,682.562 567.5,687.5C 558.548,708.85 549.881,730.35 541.5,752C 540.207,752.49 538.873,752.657 537.5,752.5C 539.61,744.338 542.61,736.505 546.5,729C 540.809,713.391 534.476,698.224 527.5,683.5C 526.699,679.765 525.699,676.099 524.5,672.5C 526.39,672.297 527.89,672.963 529,674.5C 529.099,676.653 529.933,678.319 531.5,679.5 Z"/></g>
<g><path style="opacity:1" fill="#ba2d2f" d="M 554.5,707.5 C 553.326,712.846 551.326,717.846 548.5,722.5C 546.058,718.844 544.391,714.844 543.5,710.5C 545.614,711.36 546.78,713.027 547,715.5C 547.741,714.359 548.575,714.359 549.5,715.5C 550.645,714.224 550.645,712.891 549.5,711.5C 551.461,710.422 553.128,709.089 554.5,707.5 Z"/></g>
<g><path style="opacity:1" fill="#f3a2a5" d="M 380.5,809.5 C 383.228,809.171 385.562,809.837 387.5,811.5C 384.848,811.59 382.515,810.924 380.5,809.5 Z"/></g>
<g><path style="opacity:1" fill="#fcd2ce" d="M 527.5,808.5 C 524.647,809.877 521.647,811.044 518.5,812C 514.179,812.499 509.846,812.666 505.5,812.5C 512.651,810.888 519.984,809.554 527.5,808.5 Z"/></g>
</svg>
